<?xml version="1.0" encoding="UTF-8"?>
<svg width="3793px" height="552px" viewBox="0 0 3793 552" version="1.1" xmlns="http://www.w3.org/2000/svg" xmlns:xlink="http://www.w3.org/1999/xlink">
    <!-- Generator: Sketch 54 (76480) - https://sketchapp.com -->
    <title>Artboard</title>
    <desc>Created with Sketch.</desc>
    <g id="Artboard" stroke="none" stroke-width="1" fill="none" fill-rule="evenodd">
        <g id="Horizontal-logo-blue" fill="#FFFFFF" fill-rule="nonzero">
            <g id="Layer_2" transform="translate(826.000000, 8.000000)">
                <path d="M74.2,405.3 L0,405.3 L0,117.3 L74.2,106.6 L74.2,153.8 C92.4,123 115.7,106 149.7,106 C167.3,106 185.5,109.8 201.2,119.2 L184.9,185.9 C171,178.3 157.2,174.5 143.4,174.5 C117.6,174.5 93.7,190.9 74.2,226.1 L74.2,405.3 Z" id="Path"></path>
                <path d="M298.1,276.4 C301.2,323.6 333.3,355.7 384.9,355.7 C415.7,355.7 449,345.6 475.4,329.2 L484.9,390.9 C457.2,406 418.8,414.8 379.8,414.8 C286.8,414.8 225.1,355.7 225.1,263.2 C225.1,168.9 288,106 374.8,106 C451.5,106 494.3,152.5 494.3,223.6 C494.3,239.3 491.8,259.4 488,272 L298.1,274.5 L298.1,276.4 Z M424.5,230.5 L424.5,225.5 C424.5,186.5 407.5,162 369.2,162 C328.3,162 303.8,195.3 300,231.1 L424.5,230.5 Z" id="Shape"></path>
                <path d="M645.9,415.4 C608.1,415.4 562.2,404.7 533.3,388.4 L549.7,330.5 C578.6,346.9 615.7,357.5 647.8,357.5 C676.7,357.5 695.5,345.6 695.5,325.5 C695.5,302.8 671,294.7 637.1,286.5 C582.4,273.9 539,251.3 539,196.6 C539,141.9 584.9,106 654.7,106 C690.5,106 733.3,115.4 760.3,129.3 L744,187.1 C715.7,172.7 678.6,163.2 652.8,163.2 C627,163.2 609.4,173.3 609.4,192.2 C609.4,214.2 633.9,221.7 667.9,229.9 C723.2,243.1 766.6,264.5 766.6,321.1 C766.6,375.2 720.1,415.4 645.9,415.4 Z" id="Path"></path>
                <path d="M982.3,106 C1059,106 1109.3,168.3 1109.3,257.6 C1109.3,350 1045.2,414.1 962.8,414.1 C944,414.1 919.4,411.6 901.2,406 L901.2,543.7 L827,543.7 L827,116.7 L901.2,106.6 L901.2,143.1 C920.7,124.2 947.1,106 982.3,106 Z M901.2,338.7 C915,349.4 933.9,355 955.9,355 C1005.6,355 1033.9,314.8 1033.9,260.7 C1033.9,204.1 1006.8,168.3 960.9,168.3 C936.4,168.3 917.6,177.7 901.2,192.2 L901.2,338.7 Z" id="Shape"></path>
                <path d="M1301.2,414.8 C1216.3,414.8 1154.7,356.9 1154.7,260.7 C1154.7,164.5 1219.4,105.4 1305,105.4 C1390.6,105.4 1451.5,164.5 1451.5,260.1 C1451.5,355.7 1386.1,414.8 1301.2,414.8 Z M1302.4,165.1 C1254,165.1 1227.6,204.1 1227.6,260.1 C1227.6,316.1 1255.3,354.4 1303.7,354.4 C1352.1,354.4 1377.9,316.7 1377.9,260.7 C1377.9,204.7 1350.2,165.1 1302.4,165.1 L1302.4,165.1 Z" id="Shape"></path>
                <path d="M1702.4,405.3 L1702.4,228.6 C1702.4,185.9 1685.4,171.4 1652.1,171.4 C1626.3,171.4 1602.4,184.6 1588,198.5 L1588,405.3 L1513.8,405.3 L1513.8,116.7 L1588,106.6 L1588,152.5 C1613.7,124.2 1648.3,106 1683.5,106 C1742,106 1776.6,143.7 1776.6,206 L1776.6,405.3 L1702.4,405.3 Z" id="Path"></path>
                <path d="M1943.9,415.4 C1906.2,415.4 1860.3,404.7 1831.4,388.4 L1847.7,330.5 C1876.6,346.9 1913.7,357.5 1945.8,357.5 C1974.7,357.5 1993.6,345.6 1993.6,325.5 C1993.6,302.8 1969.1,294.7 1935.1,286.5 C1880.4,273.9 1837,251.3 1837,196.6 C1837,141.9 1882.9,106 1952.7,106 C1988.6,106 2031.3,115.4 2058.4,129.3 L2042,187.1 C2013.7,172.7 1976.6,163.2 1950.8,163.2 C1925,163.2 1907.4,173.3 1907.4,192.2 C1907.4,214.2 1932,221.7 1965.9,229.9 C2021.3,243.1 2064.7,264.5 2064.7,321.1 C2064.7,375.2 2018.1,415.4 1943.9,415.4 Z" id="Path"></path>
                <path d="M2181,276.4 C2184.2,323.6 2216.2,355.7 2267.8,355.7 C2298.6,355.7 2331.9,345.6 2358.3,329.2 L2367.8,390.9 C2340.1,406 2301.8,414.8 2262.8,414.8 C2169.7,414.8 2108.1,355.7 2108.1,263.2 C2108.1,168.9 2171,106 2257.7,106 C2334.5,106 2377.2,152.5 2377.2,223.6 C2377.2,239.3 2374.7,259.4 2370.9,272 L2181,274.5 L2181,276.4 Z M2307.4,230.5 L2307.4,225.5 C2307.4,186.5 2290.4,162 2252.1,162 C2211.2,162 2186.7,195.3 2182.9,231.1 L2307.4,230.5 Z" id="Shape"></path>
                <path d="M2472.7,56.9 C2455.1,56.9 2446.3,43 2446.3,27.9 C2446.3,12.8 2455.1,0.3 2472.7,0.3 C2490.3,0.3 2499.1,13.5 2499.1,27.9 C2499.1,42.3 2490.3,56.9 2472.7,56.9 Z M2453.2,331.3 L2453.2,122.9 L2492.2,114.7 L2492.2,331.3 L2453.2,331.3 Z" id="Shape"></path>
                <path d="M2967,468.1 L2949.4,502.7 L2788.4,416.6 C2779.6,417.8 2770.8,419.1 2761.4,419.1 C2651.9,419.1 2568.3,336.7 2568.3,215.3 C2568.3,93.9 2649.4,9.7 2762,9.7 C2871.4,9.7 2955.1,91.5 2955.1,212.8 C2955.1,302.8 2908.5,373.2 2838.1,402.7 L2967,468.1 Z M2760.7,45.6 C2672.7,45.6 2609.2,113.5 2609.2,212.8 C2609.2,314.1 2674,383.2 2763.3,383.2 C2850.7,383.2 2914.2,314.7 2914.2,215.3 C2914.2,114.1 2850,45.6 2760.7,45.6 Z" id="Shape"></path>
            </g>
            <path d="M1,279.6 L139.6,279.6 L139.6,419.2 L1,419.2 C0.44771525,419.2 0,418.752285 0,418.2 L0,280.6 C0,280.047715 0.44771525,279.6 1,279.6 Z" id="Path" opacity="0.8"></path>
            <path d="M558.4,279.6 L697,279.6 C697.552285,279.6 698,280.047715 698,280.6 L698,418.2 C698,418.752285 697.552285,419.2 697,419.2 L558.4,419.2 L558.4,279.6 Z" id="Path" opacity="0.5"></path>
            <path d="M139.6,279.6 L279.2,279.6 L279.2,418.2 C279.2,418.752285 278.752285,419.2 278.2,419.2 L139.6,419.2 L139.6,279.6 Z" id="Path" opacity="0.9"></path>
            <path d="M140.6,140 L279.2,140 L279.2,279.6 L139.6,279.6 L139.6,141 C139.6,140.447715 140.047715,140 140.6,140 Z" id="Path" opacity="0.5"></path>
            <path d="M418.8,279.6 L558.4,279.6 L558.4,419.2 L419.8,419.2 C419.247715,419.2 418.8,418.752285 418.8,418.2 L418.8,279.6 Z" id="Path" opacity="0.9"></path>
            <path d="M418.8,140 L557.4,140 C557.952285,140 558.4,140.447715 558.4,141 L558.4,279.6 L418.8,279.6 L418.8,140 Z" id="Path" opacity="0.8"></path>
            <rect id="Rectangle" opacity="0.9" x="279.2" y="140" width="139.6" height="139.6"></rect>
            <path d="M280.2,0.4 L417.8,0.4 C418.352285,0.4 418.8,0.84771525 418.8,1.4 L418.8,140 L279.2,140 L279.2,1.4 C279.2,0.84771525 279.647715,0.4 280.2,0.4 Z" id="Path" opacity="0.8"></path>
        </g>
    </g>
</svg>